<mxfile host="app.diagrams.net" modified="2023-04-26T01:55:32.449Z" agent="Mozilla/5.0 (Macintosh; Intel Mac OS X 10_15_7) AppleWebKit/605.1.15 (KHTML, like Gecko) Version/16.4 Safari/605.1.15" version="21.2.2" etag="v9hUnXGkcI18VyfuoF4o" type="github">
  <diagram name="Page-1" id="E54JJkMGESCnAhxJVQJy">
    <mxGraphModel>
      <root>
        <mxCell id="0" />
        <mxCell id="1" parent="0" />
      </root>
    </mxGraphModel>
  </diagram>
</mxfile>
